<?xml version="1.0" encoding="utf-8"?>
<!-- Generator: Adobe Illustrator 24.1.0, SVG Export Plug-In . SVG Version: 6.00 Build 0)  -->
<svg version="1.1" id="Layer_1" xmlns="http://www.w3.org/2000/svg" xmlns:xlink="http://www.w3.org/1999/xlink" x="0px" y="0px"
	 viewBox="0 0 200 200" style="enable-background:new 0 0 200 200;" xml:space="preserve">
<style type="text/css">
	.st0{fill:none;stroke:#000000;stroke-width:4;}
	.st1{fill:#FFFFFF;stroke:#333C91;stroke-width:4;}
	.st2{font-family:'ArialMT';}
	.st3{font-size:12px;}
	.st4{fill:#FF0000;}
	.st5{font-family:'Arial-BoldMT';}
	.st6{font-size:18px;}
</style>
<g>
	<line class="st0" x1="50" y1="30" x2="30" y2="110"/>
	<line class="st0" x1="50" y1="30" x2="130" y2="50"/>
	<circle class="st1" cx="50" cy="30" r="15"/>
	<text transform="matrix(1 0 0 1 46.6631 30)" class="st2 st3">a</text>
	<text transform="matrix(1 0 0 1 26.9946 69)" class="st4 st5 st6">3</text>
</g>
<g>
	<line class="st0" x1="30" y1="110" x2="90" y2="170"/>
	<circle class="st1" cx="30" cy="110" r="15"/>
	<text transform="matrix(1 0 0 1 27 110)" class="st2 st3">c</text>
</g>
<g>
	<line class="st0" x1="90" y1="170" x2="170" y2="110"/>
	<circle class="st1" cx="90" cy="170" r="15"/>
	<text transform="matrix(1 0 0 1 86.6631 170)" class="st2 st3">d</text>
</g>
<g>
	<line class="st0" x1="130" y1="50" x2="170" y2="110"/>
	<circle class="st1" cx="130" cy="50" r="15"/>
	<text transform="matrix(1 0 0 1 126.6631 50)" class="st2 st3">b</text>
</g>
<g>
	<circle class="st1" cx="170" cy="110" r="15"/>
	<text transform="matrix(1 0 0 1 166.6631 110)" class="st2 st3">e</text>
</g>
</svg>
